<svg width="20" height="32" viewBox="0 0 20 32" version="1.1" xmlns="http://www.w3.org/2000/svg">
    <g id="Desktop" stroke="none" strokeWidth="1" fill="none" fillRule="evenodd">
        <g id="Mijn-Clienten" transform="translate(-1490.000000, -44.000000)" stroke="#5D728A" strokeWidth="1.73076923">
            <g id="Group-3" transform="translate(1491.000000, 45.000000)">
                <path d="M8.895708,13.2 L8.895708,13.2 C6.082548,13.2 3.801948,10.9194 3.801948,8.10624 L3.801948,5.09376 C3.801948,2.2806 6.082548,3.17694589e-14 8.895708,3.17694589e-14 C11.708868,3.17694589e-14 13.989468,2.2806 13.989468,5.09376 L13.989468,8.10624 C13.989468,10.9194 11.708868,13.2 8.895708,13.2 Z" id="Stroke-1"></path>
                <path d="M8.81346278e-14,29.887152 L8.81346278e-14,24.626232 C8.81346278e-14,19.713432 3.98268,15.730512 8.89572,15.730512 C13.80864,15.730512 17.79144,19.713432 17.79144,24.626232 L17.79144,29.887152 L8.81346278e-14,29.887152 Z" id="Stroke-3"></path>
                <path d="M3.6,26.047152 L3.6,23.624952 C3.6,22.483752 4.5252,21.558552 5.66652,21.558552 C6.80784,21.558552 7.73304,22.483752 7.73304,23.624952 L7.73304,26.047152" id="Stroke-5"></path>
                <line x1="3.801912" y1="5.093796" x2="13.989432" y2="5.093796" id="Stroke-7"></line>
                <line x1="5.666484" y1="21.558516" x2="5.666484" y2="16.267716" id="Stroke-9"></line>
                <line x1="12.30036" y1="21.798516" x2="12.30036" y2="16.267716" id="Stroke-11"></line>
                <path d="M13.989492,23.802888 C13.989492,22.870008 13.233252,22.113768 12.300372,22.113768 C11.367492,22.113768 10.611372,22.870008 10.611372,23.802888 C10.611372,24.735648 11.367492,25.491888 12.300372,25.491888 C13.233252,25.491888 13.989492,24.735648 13.989492,23.802888 Z" id="Stroke-13"></path>
            </g>
        </g>
    </g>
</svg>