<svg width="34" height="26" viewBox="0 0 34 26" version="1.1" xmlns="http://www.w3.org/2000/svg">
    <g id="Desktop" stroke="none" strokeWidth="1" fill="none" fillRule="evenodd">
        <g id="Mijn-Clienten" transform="translate(-283.000000, -47.000000)" fillRule="nonzero">
            <g id="id-card-(1)" transform="translate(284.000000, 48.000000)">
                <path d="M28.2646022,0 L3.65777205,0 C1.64001198,0 0,1.64001198 0,3.65777205 L0,20.2840086 C0,22.3017687 1.64001198,23.9417807 3.65777205,23.9417807 L28.2646022,23.9417807 C30.2823623,23.9417807 31.9223742,22.3017687 31.9223742,20.2840086 L31.9223742,3.65777205 C31.9223742,1.64001198 30.2823623,0 28.2646022,0 Z M9.97574195,5.32039571 C11.8086183,5.32039571 13.3009893,6.8127667 13.3009893,8.64564303 C13.3009893,10.4785193 11.8086183,11.9708903 9.97574195,11.9708903 C8.14286563,11.9708903 6.65049463,10.4785193 6.65049463,8.64564303 C6.65049463,6.8127667 8.14286563,5.32039571 9.97574195,5.32039571 Z M15.9611871,17.6238108 C15.9611871,18.1744717 15.5142739,18.621385 14.9636129,18.621385 L4.98787098,18.621385 C4.43721002,18.621385 3.99029678,18.1744717 3.99029678,17.6238108 L3.99029678,16.9587613 C3.99029678,14.9410012 5.63030876,13.3009893 7.64806883,13.3009893 L12.3034151,13.3009893 C14.3211751,13.3009893 15.9611871,14.9410012 15.9611871,16.9587613 L15.9611871,17.6238108 Z" id="Shape" stroke="#5D728A" strokeWidth="1.6"></path>
                <path d="M26.9345033,18.2262366 L19.6189592,18.2262366 C19.0682982,18.2262366 18.621385,17.8678366 18.621385,17.4262366 C18.621385,16.9846366 19.0682982,16.6262366 19.6189592,16.6262366 L26.9345033,16.6262366 C27.4851642,16.6262366 27.9320775,16.9846366 27.9320775,17.4262366 C27.9320775,17.8678366 27.4851642,18.2262366 26.9345033,18.2262366 Z" id="Path" fill="#5D728A"></path>
                <path d="M26.9345033,12.9058409 L19.6189592,12.9058409 C19.0682982,12.9058409 18.621385,12.5474409 18.621385,12.1058409 C18.621385,11.6642409 19.0682982,11.3058409 19.6189592,11.3058409 L26.9345033,11.3058409 C27.4851642,11.3058409 27.9320775,11.6642409 27.9320775,12.1058409 C27.9320775,12.5474409 27.4851642,12.9058409 26.9345033,12.9058409 Z" id="Path" fill="#5D728A"></path>
                <path d="M26.9345033,7.58544517 L19.6189592,7.58544517 C19.0682982,7.58544517 18.621385,7.22704517 18.621385,6.78544517 C18.621385,6.34384517 19.0682982,5.98544517 19.6189592,5.98544517 L26.9345033,5.98544517 C27.4851642,5.98544517 27.9320775,6.34384517 27.9320775,6.78544517 C27.9320775,7.22704517 27.4851642,7.58544517 26.9345033,7.58544517 Z" id="Path" fill="#5D728A"></path>
            </g>
        </g>
    </g>
</svg>